<?xml version="1.0" encoding="utf-8"?>
<!-- Svg Vector Icons : http://www.onlinewebfonts.com/icon -->
<!DOCTYPE svg PUBLIC "-//W3C//DTD SVG 1.1//EN" "http://www.w3.org/Graphics/SVG/1.1/DTD/svg11.dtd">
<svg version="1.1" xmlns="http://www.w3.org/2000/svg" xmlns:xlink="http://www.w3.org/1999/xlink" x="0px" y="0px" viewBox="0 0 1000 1000" enable-background="new 0 0 1000 1000" xml:space="preserve">
<metadata> Svg Vector Icons : http://www.onlinewebfonts.com/icon </metadata>
<g><path d="M682.4,87.3l-0.4,24.4c0,1.9,0.8,3.9,2.4,6l2,2.1l2.6,1.4h0.5c1.4,0,2.1-0.8,2.6-1.3l0.3-0.3l1.1-3.9c0.1-0.5,0.3-0.8,0.4-1.1l1.4,1.5l2.1,4.5c2.1,3.2,4.6,3.9,6.3,3.9c1.7,0,3.4-0.7,5.4-2.2l6.3-6.7c0.9-0.7,1.3-0.8,1.3-0.8c0.1,0.1,0.7,0.6,1.1,3.2l0,1.1c0.9,5.2,3.4,7.9,7.4,7.9c1.2,0,2.5-0.2,4-0.8l7.2-3.2l2.3-3.3l0.1,0.1c3,3.4,9.1,5.1,18,5.1c4.9,0,5.3-4.4,5.5-6l-0.3-5.9v-0.2l1.2,0.6l2.5,4.7l1.9,1.8c2.6,4,6.3,6,11.3,6c4.1,0,6.6-0.5,8.2-1.5l2.9-4.4l1.2-5.9c0.3-2.2,1.6-4,2.7-5.2c4-4.8,3.2-8.7,1.9-11c-1.4-3.1-4.3-5.7-9.8-8.6l-13.9-5.1l-13.5-1.3c-3,0.3-5.7,1.3-9.3,3.6l-15,10.2c-0.3,0-0.4,0.1-0.5,0.1c-0.1,0-0.5,0-0.6-0.9l-0.1-0.4c-1.3-2.7-3.5-6.3-7.7-6.3c-1.4,0-2.8,0.4-4.3,1.1l-8.1,6.7c-0.7-0.5-1.9-1.9-3.7-5.1l-3.4-7.4l-0.3-0.4c-1.7-1.9-4.9-3.2-9.3-3.8c-0.8-0.1-1.3-0.2-1.7-0.3l8.8-7.7c1.6-2.3,1.2-4.9-0.8-6.3c-3.6-3.7-8.9-5.6-16.1-5.6h0l-9.1,0.6l-0.8,0.2c-2.7,1.4-2.6,5.3,0.2,13.5L682.4,87.3z"/><path d="M588.2,150.7c3.1,6.3,2.5,11-2,15.3c-1,0-3.5-2.1-4.1-2.7l-5.6-5.8c-2.2-3-5.5-2.3-6.9,1.9c-1.1,3.1-1.2,5.6-0.2,7.7c2.9,4.5,4.9,7.3,7.2,9.7l8.7,5.8c3.9,2,6.3,4.2,8.1,7.3l4.5,8.4c1.9,3,4.9,4.7,8.5,4.7c0.3,0,0.7,0,0.8,0c2.6,0,4.2-1.1,4.8-3.3l0.1-0.5l-2.8-5.8c4.1,4.6,8.4,3.9,10.8-2l4.4-14.2c1.6-4.1,1.4-8-0.5-11.4c-2.2-3.4-6-5.3-10.9-5.3c-0.5,0-0.9,0-1.2,0c-1.7,0-2.2-0.5-2.3-1.4l8.3-16.5c2.3-4.1,1.3-6.8-0.5-7.9c-3.2-2.1-7.1-1.6-11.5,1.9l-3.1,2.5c-0.1,0-0.2,0.1-0.4,0.1c-0.1,0-0.3,0-0.7-0.6c-2.4-2.5-7.2-3.3-16.4-2.9l-0.7,0l-0.5,0.4c-1.9,1.7-1.4,5-0.3,7.5L588.2,150.7z"/><path d="M874,230c-0.2,0.1-0.3,0.1-0.5,0.2l-9.6,2.5c-0.4,0-0.6,0-0.8-0.1c0.2-0.4,0.8-1.3,2.5-2.7l4.9-3.1l4-2.9l0.3-0.3c1.2-1.5,0.5-3.7-1.7-5.7c-1.9-1.9-3.8-3-5.6-3h-0.8c-0.9,0-2.1,0.4-6.1,2.4l-4,0.3c-0.4-0.7-0.8-2.2-0.8-4.5c-0.5-3-2.3-5-4.7-5l-4.8,1.7c0-0.1,0.1-0.1,0.1-0.2l4.9-7.1c0.4-1,0.3-2-0.3-2.8c-0.9-1.3-2.8-2.3-5.9-2.8l-7.8-1l-5.4,6.5c-0.5,0.7-1,1.3-1.3,1.7l-2.9-8.7l-0.2-0.4c-1.3-1.6-2.8-2.5-4.3-2.5c-3,0-5,3.1-6.2,5.3c-0.2,0.4-0.5,0.6-0.4,0.6c0,0-0.2-0.1-0.5-0.5c-1.3-1.7-1.2-2.2-1.1-2.3l4.2-4.6c1.5-2.2,2.9-4.7,1.7-7.1l-6.1-11c-1-1.6-3.6-2.7-8.5-3.5c-6.6-0.9-7.6-2-7.7-2l-0.3-0.3c-4.1-2.9-8-2.5-11.7,1.4c-3.1,3.4-4.5,7-4.1,10.8l0.3,4.8l-0.6,2l-2.5-5.6c-0.6-1-2.6-4.1-5.7-4.1c-1.7,0-3.3,0.9-4.7,2.6l-5.4,5.3c-0.2,0-0.3,0-0.4,0c-0.8,0-1.5-1.5-1.9-3.9c-0.3-2.7,0.7-6.9,3-12.6c1.6-3.7,1.5-6.7,1-8.7l-5.7-16.3l-0.3-0.5c-2.7-3.1-6.8-4.6-11.7-4.2c-4.7,0.4-9.7,2.4-14.2,5.7c-3.6,2.5-5.2,4.8-5.2,7.1c0.1,1.7,1.1,3.3,3.2,4.6c1.4,0.9,2,1.5,2.4,1.8c-0.1,0-0.2,0.1-0.4,0.2l-5.5,0.3l-3.4,0.9l-0.6,0.3c-2.8,1.9-4.3,4.2-4.3,6.6c0,3.4,2.9,7.1,8.8,11.2l1.1,1.4c-0.1,0.1-0.2,0.1-0.2,0.1c-6.5,1.3-7.8,5-7.8,7.7c0,2.1,0.6,4.1,2.1,6.6l3.3,3.8c2,2.5,2.5,6.1,1.4,10l-7.6,0.2c-0.1-0.3-0.1-0.6,0-0.8c0.2-0.5,1-0.9,1.7-1.2l3.7-1.6v-3.5l-6.5-8.5c-2.5-3-4.2-5.8-4.7-7.7c0-0.8,0-1.9,0.6-3.8l1.2-5.1l-4.9-6.8c-0.5-4.1,0.3-7.5,2.5-10.2c5-6.8,7.7-12.3,8-16.1c0.2-2.4-0.2-4.2-1.4-5.3c-1-1-2.5-1.4-4-1.4c-4.1-0.7-7.9,1-12.6,3.8c-4.7,2.8-8.9,6.7-13.4,12.3c-3.7,4.8-6.7,13.4-9.1,25.7c-0.5,1.3,0.5,2.5,1.9,4.3l2,2.7l-2,1.6c-1.8,0.6-3.6,1.5-3.6,3c-0.8,8.2,0.4,10.3,1.4,11.2c0.6,0.6,1.4,0.8,1.8,0.8c5.7,0.9,11,2.9,15.1,5.5c2,1.6,4.2,3.4,5.3,4.9l-0.6,0.4h-6.1c-0.7,0-1.3,0-1.9,0c-2.5,0-5.9,0.2-7.1,2.2c-0.5,0.7-0.7,2,0.6,3.7c2.7,4.4,6,7.4,9.9,8.9c4.5,2.2,9,1.3,11.8-2.3c0.5-0.6,0.9-0.9,1.1-1.1c0.2,0.3,0.5,1,0.8,2.5l1.9,5l2.1,3.3l40.1,5.1l5.9,3.6l2.8-1.3l-0.9-5.1c-0.3-1.3-0.4-2.1-0.5-2.7l11.6,5.2l7.4-0.4l0.5-0.6c3.8-4.8-1.8-9.8-6.4-13.1l-6.6-5.1c-0.1-0.1-0.1-0.1-0.2-0.1c1.1,0.4,2.7,1.2,4.8,2.3l15.5,11.3l1.2,3.8c0.4,1.6,1.6,3.7,6,4.3c3.7,0.3,6.6,2.3,9.1,6.4c1.4,2.2,2,4,2.2,5.3l-2.3,0.4c-2,0-6.7,0-6.9,3.1c-1.2,3.7-1.2,5.9,0,7.4c0.9,1,2.3,1.5,4.1,1.5c3.5,0,7-1.9,11.1-4.8c0,0,1.7,0.2,6.1,5.3l8.9,11.3l2.6,5.7l2.3,9.3c0.8,10.5-1.6,12.1-2.6,12.3l-1.7,0.3l0.3,1.5c0.1,0.4,0.3,1.7-3.6,4.1c-3.7,2-6.1,4.1-7.1,5.7l-0.2,0.4c-0.5,2.1,0.8,4.7,4.2,7.9c4,4,4.3,5.5,4.1,5.7c-0.4,0-0.8-0.1-1.3-0.3l-5.4-1.3l-7,3.1c-1.2,0.8-2.5,2-3.1,3.5c-0.4-0.6-1-1.1-1.6-1.6c-1.5-1.5-2.9-2.2-4.6-2.2h-0.1l-5.8-0.9c-0.6-0.1-1.2-0.1-1.6-0.1c-0.7,0-2.8,0-3.8,1.3c-0.4,0.5-0.7,1.4,0,2.9c0.3,0.4,0.4,0.6-1.2,1.8c-1.1,0.7-2,1.2-2.7,1.5c-0.9,0.5-1.6,0.8-1.9,1.4c-2.3,2.8-2.7,5.5-1,8.1c1.4,2,3.9,3.6,7.4,4.6l9.3,1.2l6.3-2.1l7.3-0.3l3.7,0.4l0.4-0.1c1.1-0.4,1.6-0.9,1.8-1.4c0.5-1,0-2-0.5-3.1c-0.3-0.4-0.5-0.6-0.6-0.8h2.9c2.3,0,4.8,1.9,6.9,5.4l3,5l4.3,4.2l0.4,0.3c5.2,2.8,5.6,4.4,5.6,4.9v2.4c0,1.8,0.4,3.1,1.8,4.6c3.7,3.5,10.5,7.8,19.8,12.5c7.3,3.6,15,6.7,22,9c1.7,0.5,3,0.7,4.2,0.7c2.2,0,3.2-1,3.5-1.6c1.1-1.8,0-4.7-3.7-9.3l-8-8.8l-6.7-5.5c-3-1.6-4.4-3.9-4-6.2l0.6-1.2c0.5,0.2,1,0.4,1.3,0.7l3.6,4.1l1.7-1.4c0.6,0.5,1.2,1.2,2,2l9,7.6l5.9,3.7l4.4,3.9l6.8,3.4l-1.8-4.8C854.2,347.5,843,278,874,230z"/><path d="M988.4,528.8c-0.6-0.9-1.1-2.2-0.4-5.1l0.3-7.1c-0.4-2.5-2.5-4.1-5.3-4.1c-0.4,0-0.7,0-1.1,0.1l-3.7,0.5c0-0.2,0.1-0.5,0.2-1c0.9-1.7,1-3.1,0.4-4.2c-0.5-0.8-1.3-1.3-2.1-1.5c-2.7-0.9-5.5-0.9-8.1-0.3c2.1-0.7,3.9-1.8,4.5-3.3c0.7-3.1-4.1-5.4-8.8-7.2l-17.3-3.9c0-0.8,0.3-2.4,1-5.5c0-1.8-1.8-4-4.9-6l-7.9-4.9l-3.3-2.9c1.2-0.1,4.1,0.1,5.2-1.3c1.4-1.9,1.1-5.4-5-17.7l-13.8-23.6c-3.3-6.8-6.6-9.9-10-9.9c-1.8,0-3.4,0.8-4.9,2.5l-8,16l-0.5,2.8l-0.5-1.5l-4.1-1.5l-2.3,4.9c-1.1,2.2-2.3,3.4-3.3,3.5l-4.1-2l-4.7-3.4c-3.9-2.1-7.8-2-11.3,0.6c0-0.1-0.1-0.3-0.1-0.5c-0.3-1-0.3-1.5-0.3-1.6c0.9,0,1.7-0.4,2.3-0.9c1.1-1.2,1.1-3.1,0-7.4l-3.3-7.9c-0.6-2-0.3-3.6,0.9-5.5l2.5-5.2c0.8-2.6,0-5.1-2.4-6.7c-1.2-0.7-3.7-1.7-6.8-2.6c-4-1.3-6.5-2.8-7.9-3.7c-3.2-1.7-5.6-3.9-7.5-6.6c-3.2-5-6.1-7.7-9.3-8.9l-8.4-0.4l-7,1.8c-2.6,0.2-4.9-0.2-7.7-1.5c-5.2-2.8-9.3-4.1-13.2-4.1c-4.2,0-9.2,1.6-9.2,8.6c-0.5,2.3,1.2,4.3,2.6,5.7l1.6,3.5l-2.7,6.2c-2.3,4.7-2.6,6.1-2,7.3l0.5,0.5c1,0.7,2.3,1.4,4,1.7l2.4,10.3l-2.1,5.3l-3.1,5.1c-2.3,4.7-2.5,8.9-0.7,13c1.1,2.8,3.5,6.2,6.7,9.6l6.3,7.9c1.5,2.5,2,5.1,1.5,7.6c-0.5,3.1-2.9,6.8-7.8,12c-4.8,5.2-9,8.1-14,9.9l-4.2,1.9c-1.9,1.1-2.2,2.9-2.2,4.2l1.1,3.2l2.6,2.8c1.7,2.2,2.4,5,2.4,9.5c0,3,0.6,6.6,1.7,10l1.3,7.1l-2.3,6.6l-3.6-0.4l-0.5,0.2c-1.2,0.5-3,1.9-2.3,5.3v1.6c-0.6-0.2-1.5-0.8-2.6-1.7c-2.2-2.6-4-5.4-4.7-7.7c-0.6-2-3-3.1-5.7-4.1c-2.8-0.6-3.7-1.3-3.8-1.5l-0.2-0.4c-3.5-5.4-4.9-11.4-4.2-18.3l-0.4-10.7c-0.5-4.8-1.8-11.3-7.2-11.3c-13.6,0-26.4-3.3-37.8-9.7l-16.4-12.3c-5.4-3.2-10.9-4.9-16.3-4.9c-1,0-2,0-3.2,0.2l-5.5,1.4h-3.6c-0.6-0.7-2-3.2-2.9-9c-1.1-7.4-3-11.5-6-13l-5.5-1.1c-2-0.5-3.4-1.2-4.3-2.2c-2-2-2.9-4.9-2.9-9.5c-0.3-3.7,0-8.1,0.9-12.8l0.6-1.7c1.5-4,2.6-7.4,4.3-10.1c3.1-4.7,5.1-5.7,5.8-5.8l1.3-0.4l-0.1-1.3c-0.3-4.1,1.7-7.8,6-11.4l5.6-3.6l1-4l-0.6-0.6c-0.7-0.7-1.1-1.3-1.5-1.6l7.1-0.8c2.8-0.3,4.9-1.7,5.9-4.1c1-3.1-2.8-6.5-11.4-10.1l-8.2-3.9c-0.3-0.1-0.5-0.3-0.8-0.4c1.6,0.3,4.2,1,8.5,2.6c7.9,2.6,13.3,4,16.2,4c0.4,0,0.7,0,0.7,0l1.1-0.1l0.5-0.5c1.2-1.1,1.1-3.9,0.9-6.3c-0.2-0.7-0.3-1.4-0.4-1.9c1.6,0.9,3.4,1.4,5.1,1.4h0c3.1,0.4,5.6-0.4,9.3-2.6c3.6-1.9,5.7-5.3,6.8-7.8c1.6-3.2,2.2-7.1,1.5-10.4l-0.3-1.4l-1.6,0.1c-3.3,0.2-6.4-0.4-8.5-1.6l-12.7-10.5c-1.4-0.9-2.9-1.6-4.5-2.1c0.7,0,1.5,0.1,2.3,0.2c5,1.2,10.9,4.5,16.1,9.1l0.6,0.6l5.6-0.7l7.6-4.8l4.8-6.7l0.2-0.4c1.1-3.4-0.7-5.3-2.5-5.9c-2.1-1.1-2.6-1.8-2.7-1.8c0.3-0.4,0.9-0.9,2.5-0.9c0.5,0,1.2,0.1,2.3,0.3c1.6,0,3.2,0.6,5.1,2.1l4.4,2.7l1-0.6c0,0,0.4-0.2,1.6-0.2c1.1,0,2.5,0.1,4.1,0.4c2.2,0.6,4-0.1,4.6-0.8c0.5-0.5,1-1.5,0.7-3.1l-0.1-0.4l-5.8-5.7c-2.8-2.8-3.3-3.9-3.5-4.1c0.3,0,1.7,0.4,4.8,4.1l4.9,5.2l3.7,3l0.4,0.2c0.4,0.2,0.9,0.3,1.4,0.3c1.6,0,4.5-0.8,11-7.5c5.2-6.2,7.2-11,6-14.9l-2.4-5.9l-3.7-4.9c-3.8-4.6-5.8-9.4-5.8-14.5c-0.1-0.6,0.5-1.3,1.7-2c0.2,0.4,0.6,1,1.2,2.2l3.3,4.8l1.6-1.6c3.2-3.2,4.3-7.1,3.5-13.4l-3.5-5.9l-4,0.3l-5.3-4.9c-4.6-3.4-8.5-5.4-12.6-6.3l-9.9-0.3l-0.4,0.1c-3.5,1.1-5.2,3.2-5.2,6c-0.4,2.7,1,5.8,4.1,9.2c3.8,4.1,4.5,6.9,4,8L725,262c-2.5,0-4.5,1-5.1,2.7l-4,16.2c-2.2,7.2-4.5,10.2-6.1,11.4c-0.4-0.1-1.3-0.4-2.4-1.4l-6.2-5.2c-6.7-7.8-3.1-10.2-1.7-11.1c3.2-2.1,4.6-5.6,3.7-9.7c-1.2-3.5-2.9-6-5.4-8.2c-2.7-3.1-5.8-4.2-8.8-3.6c-3.3,0.2-4.9,2.9-4.9,8.1c0,5-1.1,6.7-1,6.9c0,0-0.7-0.3-1.9-2.2l-4-8.1c-1.3-4.1-0.9-5.7-0.4-6.6c1.3-3.6,0.7-6.3-1.6-7.9l-13.6-4.1c-0.6-0.3-1.1-0.5-0.1-3.1c0.5-1.2,1.2-2.3,3.1-3l4.3-4l0.1-0.4c0.5-1.9-1.2-4.3-5.4-9.4c-5.3-5.7-6.1-7.8-6.1-8.6c-0.3-6.3-1.8-11.3-4.7-15.7c-2.4-3-5.7-5-11-6.8l-0.4-0.1l-6.5,0.4c-3.8,0.8-4.7,3.3-5.1,5.8l0,0.3l1.7,6.2l-1-0.7h-0.6c-3.7,0-5.8,3.2-7,5.6c-2.1,3.8-2.9,6.9-2.2,9.3c0,1.5,1.1,2.8,3,4.4l2.7,2.2c-0.1,0.7-0.4,0.9-1,1.3l-2.7,1.8l-0.5,0.5c-3.2,4.7-0.2,8,2.4,10l13.1,5.4c5.6,1.7,10.7,3.3,12.2,4.7l0.5,0.3c2.9,1.3,4.3,3.1,3.6,4.8c-0.4,0.9-1.1,2-1.9,2l-7.5,0.6l-0.5,0.1c-1.3,0.5-2.4,0.9-2.8,1.9c-0.2,0.4-0.3,1,0.2,1.8l3,2.4c4.6,2.3,4.3,4.1,4.2,4.7c-0.3,2.2-2,4.7-5.1,7.9c-5,3.7-7.6,6.5-8.7,9.3l-0.1,0.8c-0.2,0.7-0.5,2,0,3.8v5.7c0,2-0.4,4.2-1.4,4.2c-0.1,0-0.3,0-0.2,0c-3.6-1.6-5-3.8-4.7-7.4l0.6-11c-0.5-3.3-3.3-4.7-6.6-5.8l-9.9-1.2l-7.4,1.7l-0.4,0.5c-0.5,0.6-0.6,1.4-0.3,2.2c0.5,1.3,2.2,2.3,4.8,3.1c5.1,1.9,8,3.7,9,5.9c0.2,0.3,0.2,0.5,0.2,0.6c-0.1,0.2-0.8,0.5-2,0.5l-9.1-4.4h-20.8l-4.4,1.5l-4.8,0.8c-2.3-0.3-5.5-1.3-10.6-3.2l-11.3-3.5l-6.2-2.8c-2.2-1.5-5.2-3.3-6.9-3.3h-0.7l-3.4,3l-1.1,1.4c-7.1-0.2-11.5,1-13.7,3.7c-1.8,2.2-1.9,5.3-0.3,9.2c1.9,3.9,2.5,7.1,2,9.7c-0.6,2.3-1.2,3.6-2.3,4.4c-0.4,0.2-0.9,0.4-1.1,0.4c-0.1,0-0.4,0-0.8-0.4c-1-1.5-1.2-3.7-0.4-6.5c0.3-2.9-0.6-7-6.4-10.6c-3.9-2.8-9.3-4.4-15.6-4.8l-0.3,0l-14.5,3l-17.8,0.3c-6-0.3-9.8-1.6-10.9-2.3c-0.6-0.7-2.1-2.5,2.5-6.2l0.4-0.4c0.1-0.1,1-0.9,6.7-1.3l0.6-0.1c1.9-0.7,2.3-1.9,2.4-2.5c0.3-1.8-1.3-3.8-4.7-6.1c-3.7-2.4-8.3-5.1-15-7c-3.9-1.3-9.4-3.1-16.7-4.5l-16.9-5c-6.8-2.3-11.6-4.6-15.1-7.1c-3.6-2.9-6.7-4.2-9.2-4.2c-1.9,0-4.5,0.8-5.8,4.2c-2.6,5.3-5.5,5.9-7.5,5.9h-0.2l-2.9-1.4c-0.2-0.5-0.1-1.1,0.5-2c0.8-1.4,1.4-2.8,0.7-4.1c-0.6-0.9-1.8-1.5-3.1-1.5c-0.5,0-1,0.1-1.3,0.3c-3.3,1.3-5.6,4.5-6.8,9.7c-4.2-0.8-7.2-3.1-9.1-6.8l-5.8-13.8c-1.6-2.7-3.1-4.7-4.3-6.3l-0.8-1c-2.3-2-5.1-2-6-0.4l-0.2,4.2l4.9,8.5c0,0-0.3,1.3-5.6,4.1c-2.1,0.9-9.2,4.1-10.5,5.3l-8.3,6c-2.4,2.1-4.7,3.2-7.5,3.4c-3,0.4-6.2,2.6-8.3,5.7c-2.6,3.3-3.7,6.3-3.4,8.8c-0.1,0.7-0.1,1.3-0.2,1.7l-1.5-2.6l-3.3-3.3c-1.8-1.8-2-2.3-2.2-2.3l6.8-3.2l20-15.4c2.1-1.6,4.8-3.8,7.3-7.4c0.7-1.3,1.3-2.9,0.4-4c-0.5-0.7-1.8-1.9-7,0.2l-13.2,6c-5.8,2.9-9.8,4.9-12.6,7.4c-0.3,0.2-2,1.2-13.8,3.2c-5.6,1.3-8.8,3-10,5.5c-0.8,1.7-0.6,3.7,0.7,5.7c1.7,3,1.3,3.7,1.4,3.7c0,0-0.3,0.2-1.5,0.2c-0.8,0-1.7-0.1-2.3-0.1l-13.7-5l-9.6-6.6c-5.1-3.8-8.4-5.9-11.6-5.5l-5.7-1.4l-0.9-0.1c-2.4-1.2-4.9-2.9-7.9-4.9l-6.1-4.5c-2.2-1.6-5.6-2.7-8-2.7h0l-3-0.3c-15.8,6.8-34.4,10.8-56,10.8c-17,0-32.1-2.6-45.5-6.9c-10.1,4.2-21.4,7.1-33.7,8.8c-2.9,5.4-6.3,10.4-10.1,15.3c-4.6,6.8-10.2,13-16.6,18.7c1.6,8.5,2,17.2,1.6,25.9c0.3,1.1,0.6,2.2,0.9,3.4c1,0.6,2.4,1.1,4.9,1.1h0.1l7.2,1.1c0,0-0.1,1.4-6.7,4.2c-1.5,0.6-2.5,0.9-3.7,1.3c1.7,9,2.1,18.2,1.5,27.3c0.3-0.1,0.7-0.2,0.8-0.2c0.3,0,0.4,0.1,0.4,0c0.5,1.4,0.6,5.2-0.4,11.9c-1.4,7-3.1,10.3-3.9,10.8c-0.2,0.1-0.5,0.3-0.8,0.4c-1.9,6.6-4.4,13-7.5,19.2c7.4,19.9,9.4,41.6,4.8,62.3c1,0.1,2.1,0.2,3.8-0.4l6.6-2.4l3.3-1.4l9.4,3.8l9,1l-0.4-2c0-0.3-0.1-0.5-0.1-0.7l1.1,1.1l0.6,0.1c1.5,0.4,4.1,0,5.7-0.9l2.9-0.7c-0.1,0.9-0.3,2.5-1,5.1l-2.4,9.5c0,2.3-1.2,4.3-4,6.4l-6.4,6.4c-6.7,1.5-11.8,4.6-14.9,9c-1.2,2.1-1.4,3.7-0.7,5c0.1,0.1,0.1,0.3,0.2,0.4l-2.1-1l-6.4-0.9l-5.9,4.1l-4.8,4.6l0.8,1.7l-3.1-2.7l-4.2,3.7l0.6,0.5h-2.5l-7.5,2.8l-3.6,2.8c-0.7,0.3-1.9,0.8-2.1,1.9c-0.3,1.3,0.8,2.3,0.9,2.3c1.4,2.1,3.2,2.3,4.2,2.3c0.4,0,0.9-0.1,1.3-0.2l3.7-3.1l0.4-0.4c0.3-0.5,0.5-0.7,0.6-0.9c2.4,1.1,5.2,0.7,7.8-1.3l0.6-0.4v-1.9l-0.1-0.6l3.9,1.1l0.9-2.4l4.9-1.4l4.9-3.5c1-1.2,1.9-1.5,3.7-1.5h2.7c3.1,0,4.5-1.5,4.5-3.1v-0.8l8.4-0.6l5.2-3.5l4-5.4c4.1-5,7.8-7.4,11.9-7.7l0.8,0l14.9-14.9c5.9-3.4,11.8-7.2,15.3-12.2l0.2-0.4v-0.4c0-0.7,0-1.7-1-3l-2.2-2.3c-1.2-2.5,1.1-4.1,3.2-5.1l1.5-1.2c1.4-1.2,2.8-2.3,4.1-4.3l3.4-6.5c2.6-4.7,6-8,11.1-10.5l4.6-3.5c1-1,1.9-1.4,2.6-1.5l3.6,1.9l1.9,1.6c-0.2,0-0.4,0.1-0.7,0.1h-5.4l-0.8,0.2c-4.1,1.8-7.3,6.2-9.8,13.4c-1.8,5.8-2.8,10.9-2.8,15.3c0,1.1,0.9,1.9,2.1,1.9c1.3,0,3.1-0.7,13.2-9.5c7.5-4.5,10.4-5.2,12-5.2c0,0,0.2,0.3,0.1,1.3l-0.4,3.2l3.1-1.7c5.5-2.9,4.9-6.3,3.3-8.6l-2.9-2.6l-0.2-1.4c1.1-1.7,2-3.9,1.6-6.4c-0.1-0.6,0-0.9,0.2-0.9c0.2,0,0.5,0,1.4,0.2c1.2,0.2,2.6,0.6,4.6,2l5.3,1.8l0.6,0.1c1.7,0,2.7,0.7,3.5,1.3l7.4,6.4c1.5,0.9,3.1,1.1,6.2,0.1c0.3-0.1,0.5-0.2,0.6-0.3c2.7,3.1,8.4,4.8,18.3,5.4l9.7,0.9c1.3,0,2.2,0.3,2.3,0.5c0.5,2.9,3.4,4.9,7.5,4.9c3.3,0,6-0.3,8.8-1.5l2.8-0.4c0,0.1-0.1,0.4-0.3,0.6l-1,5l2.9,2.9l0.6,0.4c4.5,1.6,7.2,3.3,9.3,6l6.9,5.4l4.6,0.4l4.1-0.3l0.8-0.2c1-0.5,1.5-1.2,1.6-2c0.1-0.8-0.3-1.5-0.7-1.9c2.7,2.8,4.8,4,6.6,4c1.8,0,3.8-1,3.8-6l-0.1-1l19.3,29.9l3.3,7.6l2.1,6.9l9.4-0.3c0.4,0.4,1.3,1.5,2.5,4c1.3,2.8,1.1,4.4,1,4.9l-0.5,1.5l5.8,1.6c0,0.3-0.1,0.8-0.2,1.5l-0.8,2.7c7.6,7,13.9,14.8,18.9,23.3l0,0l0.7-0.1l0,1.2c1.2,2.1,2.3,4.1,3.4,6.3l2.1,0.6l0.7,0.1c-0.3,0.3-0.6,0.6-1.1,0.9l-0.7,0.6c2.2,4.7,4.1,9.6,5.6,14.6l3,0.4c0.9,1.6,3,3.8,7.6,5.3c2.9,1.2,5.1,1.8,6.8,1.8c0,2.3,0.7,4.8,3.6,6.7c1.5,1.1,3.3,1.5,4.9,1.2c0.4,1.6,1.4,2.5,2.2,3c1.4,1,3,1.2,4.4,0.8c0.1,1.2,0.5,2.4,1.1,3.6h-0.3l0.9,1c0.2,0.3,0.5,0.7,0.7,1l3.8,4.1c2,5.9,1.6,10.2-1.2,13.6l-1.2,0.3v-0.1l1.4-3.3c0.9-1.3,1.1-2.5,0.7-3.6c-0.3-0.8-1-1.4-2-1.7l-3.6-0.9l-3.4-0.5l-4.2-2.5h-5.1l-0.4,0.2c-1.2,0.7-2,1.7-2.1,2.9c-0.4,2.3,1.4,5.4,5.4,9.2l1,32.2l-1.8,6.4l1.6,4.5l-4.3,7c-1.1,1.5-0.7,3.9,1.3,6.6l2.6,4.9c0.4,1.1,0.5,2.1,0.7,3.3c0.1,0.4,0.1,0.9,0.2,1.4l-1.1,4.7c-2.4,4.2,0,12.4,7.5,25.2l15,22.3l10.1,12.8l15,9.4l5.4,2.2l3.7,0.9c0.9,0.3,2.8,1.4,4.8,6.2l0.9,4.9h1.5l2.3,3.2l0.1,0.2c6.7,1.1,13.1,2.5,19.1,4.4c0.1-0.1,0-0.2,0.1-0.3c0.6-0.7,1.6-1,2.8-1.2l6.1,0.6c1.7,1,3.3,3.3,5,6.3c30.3,13.7,49.7,38.1,58.1,65.5l1.4,1.4c4.4,3,7.1,6.3,8,10.1l2.4,7.6c0.8,1.8,0.9,3.6,0.9,5.3l-1.1,1.7l-1.5,1.7l-0.1,0.5c-0.2,1.9,1.6,3.6,5.8,5.3c2.3,0.8,5.3,2.6,9.1,5.4c2.7,2.4,6.1,4,10.3,5c3.6,0.9,6.8,2.3,8.9,3.7l8.1,4.8c5.8,3.6,15.1,6.9,28.5,10.2c4.5,1.3,9.9,1.2,14.3,0.1l14.4-1.5c4.3,0.3,9.1,2.6,13.9,6.8l7.9,7.5l-0.2-1.4l2.5,1.4l12.7,3l-0.2,0.1l3.5,1c2.7,0.8,5.1,1.5,7.3,2.1c8.3,2.4,12.5,3.6,13.9,4.3c0.4,1,1.6,1.9,3.7,3.2l6.6,4.6l3.1,6l0.5,0.5l1,3.3c0.9,2.3,3.8,4.8,7.9,6.7l20.1,11.7v-0.4c5.5,3,8.9,4.4,11,4.9l3.2-0.3c0.4,0.3,1,0.6,1.8,1.2l5.2,1.3l0.7-0.5c1.1-0.8,1.1-1.8,1.1-2.5v-0.5l-1.8-2.5l-0.8-1.6c0.3-0.2,1.1-0.5,2.7-0.6l6-2.7c0.8-0.3,1.6-0.4,2.3-0.4c1,0,2.5,0.3,3.9,2.7l5.5,7.8v0.1l2.4,3.7l4.6-12.4l-3.2-3.2c-2.5-2.8-5.1-4.4-7.9-5l-0.2-0.1l-11.5,0.3l-0.6,0.1c-4.9,1.8-8,3.3-10.9,5.2c-0.3,0.2-0.5,0.3-1,0.3c-0.9,0-3.6-0.5-9.2-5.1l-2.2-1.4l-8-7.5l-1-1.8c-1.9-3.4-1.6-8.8,0.7-15.5l2.7-8.9c0.8-2.3,0.7-4.4-0.2-6.3l1-0.5l-8.2-5.8l-11.1-2.7l-12.7,0.9l-10,0l-2.5-0.3l-0.1,0l-0.3-0.2c-1-0.7-1.2-1.2-1.3-1.6l-0.1-0.3l0.1-0.7c0.1-1.1,0.6-2.9,2.6-6l4.1-8.8l1.3-5.3l0.3-0.1l0.2-0.9c0.7-3.2,0.5-5.6-0.5-7.4c-0.8-1.6,0-3.6,2.3-5.6l4-6.1l-0.2-0.6c-0.8-2.3-4.7-3.5-11.5-3.5c-0.8,0-1.6,0-2.6,0.1l-15.4,2.8c-3.1,1.1-4.9,3.5-5.7,5l-2.4,6l-1.7,5.7l-4,4.3l-7.8,1.4l-7.2,0l-5.6,1.6l-3.7,0.7l-4.3-5.6l-4.3,0.3h-3.2l-3-3.3l-2.6-4.6l-0.3-0.4c-5.7-5.3-9.3-10.8-10.9-16.8c-1.2-4.8-0.1-14.7,3.3-30.2l0.4,0.1l0.6-1.6c1-3,0.9-7.3-0.3-13.2c-0.7-4.1,0.4-4.6,1-4.9c3.7-1.4,5.5-3.4,5.4-5.5l3-0.6c5.5,0,9.6-1.6,12.2-5.2l1.2-2.6c0.7-0.6,1.4-0.9,2.1-1.1l11.8,0.3l10.3-0.6v0c0.9,0.2,2.6,0.8,4.1,1.3l10.2,3.2l7,0.9l0.5,0c0.4,0,0.7,0,1,0c0.9,0,3.1,0,3.8-1.5c0.8-1.6-1-3.1-1.8-3.8c-0.4-0.3-0.9-1.1-0.5-3.8c0.2-1.4,0.6-2.2,1.4-2.2l14-0.6l14.1,1.1l2.3,3.1l3.4,3.7l4.8-0.7l3.7-2c1.8-1,3.6-0.1,6.9,2.7c2.4,2.2,4,5.4,4.9,10.1c0.7,5.2,1.6,9,4.2,10.7l8.4,10l9.5,9.4l1.2-2c3.1-4.8,4.4-10.5,3.6-16c-0.3-3.7-1.8-8-4.9-14.4l-5.7-12.9c-1.6-4.7-1.6-8.8,0-12.4c1.7-4.8,4.7-8.5,9.1-11.1l6.3-4l6.1-5.1l6.7-3.4l6.6-4.9c0.5-0.5,1.4-1.2,2.1-1.4l4.6-1.6l2-2.8l0.2-0.4c0.2-0.8,0.6-1.3,1.1-1.7c4.7-2.2,6.1-6.6,4.3-13l-2-6.7l-0.2-0.8c0.3,0.1,0.5,0.1,0.8,0.2c-11.9-49,10.2-105.3,66.5-126.6l1.5-1.8l8.7-1.8l2.5-4.7c0.5-1.2,0.8-1.7,0.9-1.9l0.4-0.2c6-3.3,12.7-4.7,20.3-4.2c8.3,0.5,15.6,0.8,21.8,0.8c15.1,0,23.4-1.6,26.1-4.9l5.3-5.3c2.5-2.2,4.1-3.1,5.9-3.1l8.2-1.6l8.9-3.6c2.8-1.3,4.5-2.9,4.9-4.8C990.2,532.5,990.1,530.7,988.4,528.8z"/><path d="M810.3,842.6l-16.6-6.1c-1.9-2.5-5.1-4-9.1-4.3c-3.6-0.3-6.5-0.9-7.9-1.9c-6.3-4.4-13.3-6.6-20.6-6.6c-2.6,0-5.3,0.3-7.8,0.8c-8.7,1.6-15.1,5.1-19.9,10.8l-3.4,4l12.8-3.7l7.6-3.4c4.7-3.1,5.6-2.3,6.1-1.8l1.9,2.9l1.3,0.5c0.6,0.3,1.4,0.6,2.6,0.6c4.4,0,11.9,2.2,22.9,6.7c7.8,3.5,11.9,6.1,12.2,7.8c0.1,0.3,0,0.6-0.2,0.9c-0.9,0.7-1.2,1.4-1,2.1l0.2,0.5c0.6,0.8,2.4,1.9,10.4,1.9c0.9,0,2,0,3.2,0c10.4-1,15.5-1.6,17.5-2.9c0.6-0.5,0.8-1.2,0.6-1.9C822.9,848.2,821.1,846.3,810.3,842.6z"/><path d="M571.5,241.5l9.2,1.8h6.1l0.4-1.2c0.6-2.1-0.7-5.3-3.3-8.4l-5.1-7.1l-14.8-7.9c-6.1-3.2-9.3-6.8-9.3-10.5c0-3.9-1-9.5-3.1-17.5l-3.4-15.4c0-4.4-0.6-8.2-1.8-11c-1.3-2.5-3.2-4.7-5.5-6.1l-18.5-9.4l-0.9,0.5c-4.3,2.3-5,8.2-2.2,18.7l3,10.9c0.3,1.3,0.6,2.5,0.9,3.6c0.6,2.2,1.1,4,1.1,5c0,2.1-0.4,3.1-0.5,3.4l-4.2-3.9l-3.6-11.6c-1-5.2-2.7-8.9-5.4-11.6c-3.5-2.6-6.3-3.9-8.6-3.9H502l-0.8-0.1c-1.2,0-2.2,0.5-2.8,1.3c-1,1.4-0.7,3.5,1,6.8c1.1,1.6,1.4,2.6,1.4,3h-1.5l-3.9,1.7l-0.4,0.3c-2.3,2-3.7,2.9-4.5,3.2l-0.2-2.3l0.4-6c0-0.9,0-2.3-11.3-6.2l-0.8-0.3l-4.8,2.4l-2.8,3.5l-1.5,0.9l-3.3,0.7c-0.3-0.1-0.5-0.3-0.5-0.4c-0.5-0.7-1-3.1,1.6-10.3c0.6-2.1,0-3.3-0.6-4.1c-0.6-0.7-1.8-1.5-4.2-1.5c-1.2,0-2.7,0.2-4.2,0.7c-6.1,1.3-12.4,4.3-18.3,8.6c-7.5,5-12.4,10-14.8,15.2c-3.1,7.1-1.9,12.7,3.8,17.7c1.8,1.6,4,2.5,7.1,3.1l15,4.3c-0.1,0-0.1,0.1-0.2,0.2l-19.8,5.3c-3.3,0.9-5,2.3-5.2,4c-0.1,1.1,0.4,2.7,3.6,4.2c4.2,1.8,8.4,2.2,11.1,2.2h0.1l26.7,2.1c7.8,0.9,17.1,2.8,17.8,6.9c-0.9,0.4-4.4,1.8-17.9,2.8l-22.6,0.6c-2.6,0-9.2,0-9.9,4.2c-0.5,2,0.3,4.1,2.6,7.1l8.8,6.6l8.5,3.6c4.8,1.1,8.1,2.5,10.6,4.2l3.9,5.7l6.2,4.9l15,0.6l0.1,0c4.1-0.3,12.4-3.5,26.8-10.2c12.2-5.6,16-6.7,17.2-6.8c2.9,2.7,7,5.3,13,8.3c4.5,2.3,9,3.5,13.1,3.5c1.3,0,2.6-0.1,4.1-0.4c3.9-1.4,7-3.2,8.9-4.4c2.5-1.8,3.9-3.8,4-5.7c0.9-2.5-0.4-4.3-1.8-5.1l-0.5-0.3l-7.8,0.6l-1.7-0.4l-1.5-2c-0.2-0.7-0.3-1.5,0.1-2C564.9,241.2,567.6,240.9,571.5,241.5z"/><path d="M437.7,152.8l5.4-3.6c1-0.6,2.6-1.2,4.6-1.8l1.1-0.4l0.5-0.2c1.4-1,3-2.3,3-4.5c-0.4-2-2.1-4-4.8-6.1l-6.1-5.9c-2-2.1-5.4-3.2-9.9-3.2h-8.1c-0.3,0-2.2-0.5-5.1-2.8c-0.9-0.4-1.8-1.1-3-1.9c-0.9-0.6-1.8-1.3-2.9-2l-5-3.7l-25,1.5l-6,0l-6.9,0.7l-0.4,0.9c-0.8,2.1-0.8,4.7,0,7.8l3.1,8.1c2.9,6.5,2.5,12.5-1.2,17.3c-2.4,3.5-4,8.1-4.7,13.4c-0.6,5.5-1.9,9.6-3.9,12.6c-1.3,2.6-2.2,5.2-0.1,7.5l5.1,2.9l6.8,2.5c1.7,1,3.1,2.8,3.6,4.6c0.8,4,3.4,7.9,7.5,11.1c2,2.3,4,3.4,6,3.4c1.2,0,4-0.5,4.9-4.9c1.1-4.1,3.1-4.7,5.3-4.7l4.6-0.6c2.1-0.5,3.5-1.5,4.3-3.3c0.7-1.6,0.8-4.7,0.4-10.5c-0.4-5.8,0.6-6.7,1-6.9L437.7,152.8z"/><path d="M460.1,105.5c2.3,2,7.2,3.1,13.8,3.1h4.4c5.9,0,9.8-0.8,11.9-2.3c3.3-2,7.6-3.3,12.9-3.9c1.5-0.3,2.9-0.4,4-0.4c3.8,0,4.7,1.4,5,2.3c0.2,1.7-4.2,4-7.3,5.4l-12.9,4.2l-5,3.9l-0.4,0.5c-1.4,2.6,1.1,4.8,2.3,5.8c2.9,1.8,7.6,3.9,14,3.9c2.8,0,5.9-1.5,10.6-3.9l10.5-7.4c4.3-3.2,7.1-5.1,9.2-6.2l6.4-0.5l2.7,1.8c4.9,2.6,9.8,2.8,13.9,1c5.1-1.9,7.9-5,9.5-10.5c1.1-3.7,1.4-7.2,1.1-10.6c-0.3-3.6-1.2-7.1-2.8-11.4l-3.5-4.2c-0.9-0.8-2.2-1.8-4.1-1.8c-0.4,0-0.9,0.1-0.9,0.1c-1.4,0-3.4,0.3-4.1,2.6l-0.1,0.3l0.4,4.8c0.6,1.5,0.8,2.5,0.8,3.1c-0.3-0.1-0.7-0.4-1.3-0.8l-8.8-7.4l-0.6-2.6c-3.7,2.9-7.6,5.5-11.8,7.9c1.3,2.8,2,5.3,1.1,7.1l-0.8,1.1l-3,1.4c-2.3,0.2-4.1,0.2-6.8,0l-5-1.7c-0.2-0.1-0.4-0.3-0.7-0.4c-15.2,6.1-32.9,9.5-53.2,9.5c-1.4,0-2.8-0.1-4.2-0.2C457.2,101.6,457.7,103.9,460.1,105.5z"/><path d="M649.3,64.1c0.6,1,1.8,1.6,14.5,5.8c1,0.4,1.9,0.6,2.7,0.6c1.1,0,2.1-0.4,2.9-1c1.4-1.3,1.9-3.6,1.6-7.9l-1.7-6.2l-3.3-5.2l-5.6-1l-7.6-4l-9,0.3l-0.9,0.2c-2.4,1.3-2.9,3.3-1.2,6.1l3.3,4.3L649.3,64.1z"/><path d="M874.3,861.3l-1.1-0.4c-1-0.4-2-0.7-2.1-0.9l-4.1-1.6c-0.7-0.2-1.4-0.4-2-0.5c-0.4-0.1-1-0.2-1,0l-0.6-1.6l-2-2.3h-3.6l-6.7-2.6c-3.4-1-4.8-0.9-6,0.1l-1.2,0.4l-5.2,0.7l-6.5-0.5c-2-0.5-2.8,0.2-3.2,0.5h-2.3l1.9,2.4c0.8,1.1,2.1,1.8,3.8,2.2l0.3,0.1l0.3,0c0.3,0,0.5,0,0.8,0c0.5,0,0.7,0.1,0.9,0.1l-0.2,0.5c-0.3,1.5-0.4,2.6,0,3.7l0.4,0.6c0.9,0.8,1,1.3,1,1.5l-5.2-0.3l-6.7-1.2c-0.4-0.1-0.8-0.1-1.1-0.1c-1.5,0-2,0.6-2.4,1.4c-0.1,0.6,0.1,1.1,0.4,1.5c1,2,2.6,3.1,4.5,3.1c0.4,0,0.6,0,0.7-0.1l4.9-0.3l6.9,0.6l5.4,0.3l1.1,2.2c0.7,1.3,1.9,2,3.5,2h0.4l0.4-0.1c1.3-0.5,2.1-1.7,2.8-3.7l1.7-3c0.3,0.2,0.8,0.5,1.6,1.2c1.5,1.3,3.6,0.2,4.8-0.7l0.3-0.4c0,0,0.6-0.4,3.5-0.4h4c1.8,1.2,3.5,1.7,5.2,1.8l0.6,0l3.4-2.3l0.1-0.6c0.2-1-0.2-1.7-0.6-2.2C875.5,861.6,875,861.4,874.3,861.3z"/><path d="M895.5,863l-3.9,0.9c-3.9-1-6.8-1-8,0.5l-1.3,1.9l1.4,3.3l4.6,0.7l3.7-0.9l3.9,0.9l3.2-1.9l0.7-2.3l0.1-0.4C899.9,864.5,899.1,863.1,895.5,863z"/><path d="M796.2,863.3l-11.1,1.3L785,866c-0.1,1.5,1.1,2.6,2.7,3.7l5.1,2.3l5.3-1.3l8.9-0.8l-5.4-4.3L796.2,863.3z"/><path d="M954.9,510.8c1-0.5,3.2-1.3,5.9-2.2c1.4-0.4,3-1,4.5-1.5c0.5-0.1,1-0.3,1.6-0.4c-2.1,0.8-4.1,2-6,3.7c-1.5,1.3-3.3,2.1-5.6,2.5l-4.1,0.9C951.7,513,952.8,512,954.9,510.8z"/></g>
</svg>