<?xml version="1.0" encoding="utf-8"?>
<!-- Svg Vector Icons : http://www.onlinewebfonts.com/icon -->
<!DOCTYPE svg PUBLIC "-//W3C//DTD SVG 1.1//EN" "http://www.w3.org/Graphics/SVG/1.1/DTD/svg11.dtd">
<svg version="1.1" xmlns="http://www.w3.org/2000/svg" xmlns:xlink="http://www.w3.org/1999/xlink" x="0px" y="0px" viewBox="0 0 1000 1000" enable-background="new 0 0 1000 1000" xml:space="preserve">
<metadata> Svg Vector Icons : http://www.onlinewebfonts.com/icon </metadata>
<g><path d="M338.1,936.8c-4.5-2.4-10.6-0.9-16.7,5.2c-4.9,5.3-8.3,9.2-5.6,12.2l0.7,0.8l6.8,1.3l3.9-0.7c-0.1,0.1-0.2,0.2-0.4,0.3l-7.7,6.8v1c0,1.4,1.1,2.8,6.8,5.8c1.8,1.1,6.8,4.2,7.3,5.2l0.1,0.2l-4.4-0.9c-3.2-1.1-6.1-1.7-8.4-1.7c-5.7,0-7.3,3-7.6,4.1l-2.5,5.6c-0.4,1.9-0.7,5.3,1.4,7l2.1,1h0.8c1.9,0,3.6-1.1,4.7-2.1l5.1-3.3v0c0.9,0.2,2.7,0.9,3.8,1.4c0.9,0.3,1.9,0.7,3,1.1c5.5,2.5,8.6,2.1,10.4-1.5c1.2-3.7,1.2-9,1.2-16.4l1.1-15.8l1.7-6.3c0.6-2.1,0.3-4.5-1.1-6.2L338.1,936.8L338.1,936.8z M257.7,763l2.4,6.1l5.3-0.6l1-0.3c2.6-1.1,4-3.4,3.9-7.5l-1.6-6.8l2.8-5.5c0.7-2.2,1-3.7-0.1-5.1c-0.8-1-2.1-1.4-3.3-1.7l-0.8-0.2l-0.9,0.2c-2.3,0.5-4.6,1.2-6,3.4l-1.6,6.1l0.2,0.6c0.5,1.3,0.9,3.3,0.4,4.7L257.7,763z M847.9,261.4l-9-24.9l-8.1-4l-11.4-1.3c-9.2-1.5-15-4.1-18.6-8.3c-3.3-5.5-8.4-9.4-16.2-12.4c-8.6-2.8-14.9-4-20.7-4l-20.2,0.5l-9.9-3.3l-10.2-1.4c-0.6-0.2-1.5-0.4-2.7-0.4c-3.1,0-6.8,1.1-12.4,3.9l-7.2,1.6c0-0.6,0.3-1.8,1.6-3.7c2.9-4.2,1.4-8.3-4.7-12.4l-1.1-0.8l-3.5,0.5l-2,0.8l-3.1-5.8l-25.1-6.4l-0.9-0.1c-6.5,0-12.2,1.7-16.2,5l-10.6,12.2c-0.9,1.1-1.6,1.9-2.2,2.3l-2.6-2.8l-3.2-1l-12.3-1.2c-2-0.4-3.5-0.9-5.1-2.1l-0.6-4l-4.6-2.3l-11,4.3c-0.3,0.1-0.5,0.2-0.6,0.2c0.1-0.3,0.2-0.6,0.3-1l3.5-6.2l16.7-14.7c7.4-6.7,10.7-11.5,11-16l0.1-1.4l-10.1-5.7c-5.7-4.3-8.1-8.3-7.6-12.4c1.5-4.2-1-8.3-4-12.3l-3.8-3.1l0.1-0.2l-3.2-2.3l-0.2,0.4L572,99.2l-1.5-0.5l0.7-0.5l-3.9-0.4l-0.5-0.2l-0.2,0.1l-23.2-2.3l-12.8,0.4h-12.9l-4.1-2.1l-3.9-3.7c-3.6-2.9-8-4.4-12.5-4.1c-1-6.9-4.8-12.1-12-16.7l-6.8-2.3l-0.3-1l-25.5-2.3c0.7-0.5,1.7-1,2.5-1.5l9.3-8.2l-3.2-1.6c-1.8-0.9-4.8-2.2-9.2-3c-7.1-2-11-3.2-12.9-4.1c-1.3-1.3-1.3-1.9-1.1-2l0.9-0.5l2.4-5.8l-19.6,1.7l-27.8,4.3c-1.7,0-3.8-0.5-6.1-1.7l-8.1-3.6L364,38.1c-5.7-0.4-10.6-0.8-13-3.2l-3.3-3.9l-1-0.3c-0.2,0-0.5-0.2-1.2-0.6c-0.7-0.4-1.7-0.9-3-1.2c-6.5-1.8-12.6-3.4-13.4-4.4l-0.2-0.3c-1.3-4-2.8-6.6-5.9-6.6c-1.1,0-2.2,0.4-3.3,1.2l-2.2,3.9l2,3.3l1.7,0.1c1,0.1,1.6,0.1,2,0.2c-0.5,0.3-1.3,0.5-2.5,0.9c-10,0.6-16.3,2.9-18.6,6.6c-2,2.8-1.3,7.1,2.9,15.6c0.9,1.3,1.4,3-2.6,5.4c-1.8,1.5-3.5,1.7-4.5,0.4c-2.5-3.7-3.7-6.3-3.8-8.3l4.3-8.5c1.4-1.7,1.2-4-0.6-7.2l-2.1-2.4l2.6-2.8l6.3-3l7.1-5.8l-4.1-1.5c-1.6-0.6-4.8-1-6.5-1.2c-2.8,0-7.9,2.4-23.3,10.1l-6.2,3.1c-8.8,0.1-12.3,1.8-13.7,3.1c-1.2,1.1-1.3,2.4-1.3,3.3c-0.1,0.3-0.2,0.5-0.2,0.6l-8.7-1.9l-1.1,0.5c-4.1,2-6.3,6.2-6.9,12.6c-0.9,4.4-2.9,7.5-5.2,7.8c-3.7-0.9-6.5,0.9-9.1,3.2l-5.2,6.1l-1,4.6l-2.7-2.7l-8,20.4l0.9,1.3c0.9,1.6,1,3.6,1,7.7l-1.8,8.4l3.6,18.3c0.5,5.6-1.5,11.4-6.3,17.8l-3.1,0.4l-5.6-0.5l-6.6,9.3l-2.4,4.7l-4.6,4.3l-5.5,3.2l-3.5,1.2l-6.3,8.9l-6.9,12.3l-3.2,16.5c0,4.2,2.5,6.6,7.2,6.6l1.3,0l8.9-2.9c-0.2,0.4-0.5,0.9-0.8,1.5l-4.8,7.8h-1.9v0.9l-0.3,0.2c-3.5,1.6-8.6,4.4-14,10.7c-3.2,2.2-3.6,5.3-1.2,8.7l5,6l1,2.1l-0.4,2c-1.4,1.3-2.1,2.6-2,4.1c0.1,1.7,1.4,3.5,3.9,5.2l13.2,7.1c2,1.6,7.8,7.6,15.6,19.1c9.8,12.5,12.6,17.9,12.6,19c0,4,2.6,10,8.4,19.6c5,9.1,9.6,14.7,14.2,17.4c4.3,11.2,11.8,20.8,23,29l32.3,16.5c13.7,6.2,22.3,11.3,26.9,16.1l5.2,5.8l0.9,2.2c2.7,6.3,4.1,13.2,4.1,21l-3.5,59l-6.4,29c-5.4,15.7-6.6,25.5-6.6,31c0,15.2-1,29.5-2.9,41.8l0.5,6.9l1.1,6.6l-1.7,2.2l-4.4,3.7l2.1,4.6l1,3.8l-3.1,4.7l-4,5L278.2,655c-0.5,2.5-2.6,5.6-6.9,10.2c-2.1,3.4-2.5,7.3-1.3,12.3c2.2,5.8,2.4,13.1,0.6,20.4l-7,20.9c-3.3,9.2-1.4,15.2,6,18l7.9,1.9c2.4,0.3,3.8,1.2,4.9,3c0.5,4.3-0.3,9.3-2.4,15.5l-3.6,15.8c0,3.7,1.3,7,4.1,9.9c2.2,1.9,2.5,3.1,2.5,3.9l-7.1,5.3c-6.3,2.4-5.6,5.7-5.3,6.6c0.2,0.7,0.6,3.8-2.9,13.2c-3,9.1-5.2,9.2-5.5,9c-1-0.8-2-1.4-3-1.8l3.2-4c0.7-0.8,1.6-2,1.3-3.4c-0.1-1.2-1-2.3-2.6-3.4l-0.9-0.5l-0.9-0.1c-3.5-0.3-5.8,0.6-7.6,3l-9.7,9l-4.6,2.1l3.7,2.3c0.9,0.6,2.3,1.1,4.5,1.7l10.8,2.9l1,0.1c1.7,0,3,0.3,3.4,0.8c0.5,0.5,0.2,1.5,0.2,1.5l-5.3,6.9c-0.9,1.3-2,3.2-1.2,5.3c0.6,1.2,1.9,2.1,4.1,2.8l11,0.6c1,0,1.6,0,1.6,1.7c0,0-0.7,0.6-3.5,0.6c-0.7,0-1.6-0.1-2.5-0.1l-1.1-0.1c-3.8,0-6.4,3.1-7,8.4l-0.6,12.3l1.3,12.9l0.1-0.1c0.6,5.8,2.4,12.2,8.2,12.2c0.7,0,1.2-0.1,1.2-0.2h0.2l-4.2,4.9c-3.2,4.5-4,6.9-2.8,8.7c0.8,1.4,2.4,2,3.9,2.2c0.7,1.1,0.8,2.3-0.7,4.9c-0.9,2.9,0.6,5.3,4.3,7.3l1.6,0.9l2.7-1.4v5.8l1.8,1.8h1.6c2.5,0,4.3-2.2,5.6-4.1c0,0,1.1,0.3,3.2,4.1c-1.2,2.2-1.3,4.1-0.3,5.7c1.3,2.4,4.6,3.2,6.5,3.5l0.6,0.2l-8.3,1.6l-1.3,0.6c-2.2,1.6-3.1,3-3.1,4.1c0,0.9,0.5,3,5.6,3c0.4,0,0.9,0,2-0.1c6.1,0,11-1.2,13.4-3.2l2.2-1.2l0.8,0.7l-3.9,6.9c-5.3,5.8-3.8,9-1.7,10.7c2.8,2.6,5.4,3.9,7.8,3.9c4,0,6.6-3.3,7.9-10.1l1.2-10.6l0.9-5.1l4.2-0.4l5.8-1.6l0.6-0.5c1.9-1.8,4-2.9,6.4-3.4l3.6-0.7c0.4,0.2,0.9,0.3,1.3,0.5l5.2,1.1l5.3-1.3l0.6-0.7c2-2.4,0.9-6.8-3.1-13c-4.6-7.1-6.8-13.2-6.2-17.6c0.5-4.6,2.9-8.1,7.1-10.8l6.7-2.7l5-4c0.9-0.7,2.2-3.1,2.2-5.7l1.1-8.1c2.3-7.4,9-14.3,20.1-20.7l0.7-0.6c4.2-4.9,6.4-10.2,5.7-14.4l-0.3-0.8c-1.3-2.3-4.4-4.8-9.4-7.8l-11-6.3c-3-2-3.8-4.9-2.3-8.5c1.1-3.6,3.3-6.8,6.4-9.3l10.4-6.8l8.5-5l0.8-0.7c1.9-2.7,3.2-5.8,3.8-10.3c-0.4-3.1,2.1-7.7,7.4-13.1l6.3-8.7l-4.7-2.1l3-0.5l3.3,1.2c0.5,0.2,1.1,0.4,2.4,0.8c0.6,0.2,1.1,0.3,1.4,0.5l2.3,0.5c2.6,0,4.8-1.6,5.9-3.1l1.6-7l-2.3-6.4h-7.3l-0.9,0.5c-3.2,2.2-7,3.9-10.1,4.8c-3,0.7-3.8,0.3-4,0.1c-0.2-0.2-0.8-1.3,0.5-4.9c0.6-2.7,0.7-7,0-13.7c-0.3-1.4-0.2-2.5,0.3-3c0.6-0.6,2.6-0.4,5.2,0.8c14.4,5.4,21.4,6.4,26.5,3.8c4.2-2.3,6.6-6.7,7.9-13.7l2.8-16.2c2.2-5,5.8-7.2,11.8-7.2l29.1-1.5c8.4-1.7,17.3-4.8,25.6-8.9c6.6-2.8,13.7-9.1,9.9-23.4l-1.8-12.5c-1.9-4.8-1-6.1-0.9-6.3l1.4-1.7l-7.8-6.5l-0.7-0.4c-4.9-2.6-7.7-4.1-8.3-4.5c-3.4-2.8-3.4-3.7-2.9-3.6c0.3,0,0.6,0.1,1.1,0.1l0.6,0.1l0.2,0.5l19.3,3.5l4.9,3.6c2,1.7,4.3,2.6,6.4,2.6c0.6,0,1.2,0,1.6-0.2l14.6-1.4c5.8,0.8,10.8-0.3,15.9-3.9l12.4-10.7l-0.1-0.6l0.7-0.7c12.2-12.2,18-21.2,18-28.2c-1-3.2,1.6-8,7.4-13.8c4.8-6.6,8-8.5,9.9-8.9v0.7l-2.6,3c-1.9,2.3-3.8,4.8-5.6,7.8l5.3,2.6l22.2-26.1c13-17.2,17.1-26.1,15-32.3l-0.5-16.7c-0.6-5.8,0.4-8.6,3.8-10.2l29.7-16.8l0.7-0.6c1.3-1.4,4.2-2.2,8.4-2.2c4.2,0,8.4-1.4,11.4-3.9c5.1-4.3,8.1-5.9,11.1-6.4l18.5-1.4l10.1,0.5c4.9,0,6.6-2.4,7.2-5c0-0.7,2.1-2.4,3.8-4l9-5.3v-1.3c0.2-6.7,3.2-12.8,9.6-18.9l7.4-8l4.1-7.7l0-12.1c0.6-2.7,2.7-6,6.1-10c2.6-2.8,3.3-9,3.9-22l-1.7-21.6l-0.1-0.7c-0.4-0.9-0.6-4.1,0-9.9c0.8-3.6,1.5-5.8,2.1-7.2l1.5,1.2c1.3,1.9,3.3,2.9,5.2,2.8l0.1-2.5l2.5,1.5l4.2-4.9l4.8-7l5.2-10l4.4-6l11-5.4l16.6-17.8l4-10.1l1.3-5L847.9,261.4L847.9,261.4z M613.7,174.3c-1.5,1.3-2.4,4.2-3,9c0,5.3,0.3,9.4,4,10.3l0.5,0.1l9.4-0.5l7.2,1h0.3c3.1,0,5.4-1.3,6.8-3.7l6-8.1c1.5-3.6,1.6-5.6,0.5-6.9c-1.3-1.5-3.8-1.5-4.4-1.5l-12.6-1l-13.8,0.5L613.7,174.3L613.7,174.3z M458.6,38.4l8.9-0.9c4.2,0.3,8.4-0.8,10.3-2.8l0.6-0.6l1.3-10l-1.3-13.3l-2.2-0.5c-5.8-1.2-11.7,0.5-14.6,4.6l-0.5,0.6v3.6l1.7,3.9c-0.2,1.7-1.9,5-6.4,7.8l-10.4,8.5h8.5L458.6,38.4L458.6,38.4L458.6,38.4z"/></g>
</svg>